<svg width="37" height="36" viewBox="0 0 37 36" fill="none" xmlns="http://www.w3.org/2000/svg">
<rect x="0.36499" width="36" height="36" rx="12" fill="#00106A"/>
<path d="M28.9846 24.7522L18.4013 31.4982L18.3218 18.3647L29.8979 11.0567L29.8961 23.0904C29.8961 23.7636 29.5523 24.3904 28.9846 24.7522Z" fill="#60D0FE"/>
<path d="M6.83203 11.4534L18.3553 18.3676L29.898 11.0567L19.4068 4.78406C18.7621 4.3985 17.955 4.40894 17.3203 4.81106L6.83203 11.4538V11.4534Z" fill="#008FFF"/>
<path d="M6.83202 11.4534L6.8961 21.8905C6.89862 22.2786 7.3281 22.5119 7.65462 22.3024L12.7166 19.0581C13.0258 18.8597 13.0172 18.405 12.7007 18.2185L10.9155 17.1663C10.765 17.0773 10.6725 16.9157 10.6729 16.7407L10.6779 13.7607L6.8313 11.4531L6.83202 11.4534Z" fill="#2447F9"/>
<path d="M18.4053 31.4982L8.80659 25.6907C8.49411 25.5017 8.48907 25.0503 8.79687 24.8541L14.6112 21.1482C14.9377 20.9401 15.3658 21.1731 15.3683 21.5601L15.3885 24.5275C15.3895 24.7011 15.4821 24.8613 15.6318 24.9491L18.3603 26.5486L18.4056 31.4982H18.4053Z" fill="#438CFD"/>
</svg>
