<svg width="56" height="8" viewBox="0 0 56 8" fill="none" xmlns="http://www.w3.org/2000/svg">
<g id="Group">
<path id="Vector" d="M9.84792 0L8.05884 2.44944H17.8096C18.3027 2.44944 18.2965 2.63652 18.0555 2.96733C17.8109 3.30185 17.4014 3.88045 17.1518 4.22116C17.0251 4.39338 16.7964 4.70684 17.5539 4.70684H21.5415L22.7231 3.08875C23.456 2.08642 22.7871 0.00123829 20.1668 0.00123829L9.84792 0Z" fill="#D80613"/>
<path id="Vector_2" d="M7.33461 7.98019L10.9287 3.05901H15.3885C15.8816 3.05901 15.8755 3.24734 15.6345 3.5769L14.7245 4.82578C14.5979 4.998 14.3692 5.31146 15.1266 5.31146H21.1001C20.6045 5.99785 18.9913 7.98019 16.0992 7.98019H7.33461ZM27.9158 5.31022L25.9668 7.98019H20.8259L22.7748 5.31022H27.9158ZM35.7902 4.7056H23.2174L26.6554 0H31.794L29.8241 2.69847H32.1173L34.0896 0H39.2282L35.7902 4.7056ZM35.3487 5.31022L33.3998 7.98019H28.2613L30.2102 5.31022H35.3487ZM0 6.36334H7.57192L7.15877 6.92955H0V6.36334ZM0 5.31022H8.34166L7.92728 5.87643H0V5.31022ZM0 7.41646H6.80342L6.3915 7.98019H0V7.41646ZM56 6.92955H48.4551L48.8695 6.36334H56V6.92955ZM56 7.98019H47.6891L48.0998 7.41646H56V7.98019ZM49.638 5.31022H56V5.87766H49.2249L49.638 5.31022ZM46.3451 0L42.9071 4.7056H37.4612L40.9017 0H46.3451ZM37.021 5.31022C37.021 5.31022 36.646 5.82811 36.4628 6.0759C35.8185 6.95557 36.3878 7.97896 38.4941 7.97896H46.7472L48.6961 5.31022H37.021Z" fill="#D80613"/>
</g>
</svg>
