<svg width="56" height="56" viewBox="0 0 56 56" fill="none" xmlns="http://www.w3.org/2000/svg">
<g id="fedex">
<path id="Union" fill-rule="evenodd" clip-rule="evenodd" d="M35.9497 24.4413H40.8891V21H32.3192V36.4398H40.8891V32.9889H35.9497V29.9496H40.8891V26.6384H35.9497V24.4413ZM45.2506 31.5393L40.8894 36.4396H45.3505L47.4707 34.0395L49.6112 36.4396H54.2316L49.8315 31.519L54.1721 26.6382H49.731L47.651 29.0188L45.491 26.6382H40.8894L45.2506 31.5393Z" fill="#FF6600"/>
<path id="path23" d="M28.7041 21V27.3187H28.6643C27.8639 26.3988 26.8639 26.0791 25.7037 26.0791C23.3269 26.0791 21.5366 27.6948 20.9081 29.831C20.1915 27.4772 18.3431 26.035 15.6024 26.035C13.3766 26.035 11.619 27.034 10.7018 28.662V26.6386H6.10113V24.4417H11.1218V21H2V36.44H6.10113V29.9496H10.1888C10.067 30.4264 10.0019 30.9369 10.0019 31.4755C10.0019 34.6963 12.4624 36.9561 15.6024 36.9561C18.2429 36.9561 19.983 35.7165 20.9034 33.4564H17.3889C16.9134 34.1354 16.5528 34.337 15.6024 34.337C14.5003 34.337 13.5501 33.3755 13.5501 32.2357H20.7065C21.0168 34.7938 23.0095 37 25.7441 37C26.9237 37 28.0038 36.4198 28.6643 35.44H28.7041V36.4396H32.3193V21H28.7041ZM13.6642 29.9958C13.8923 29.0151 14.6529 28.3742 15.6024 28.3742C16.6476 28.3742 17.3695 28.9954 17.5594 29.9958C17.6394 29.9958 13.6642 29.9958 13.6642 29.9958ZM26.5102 34.089C25.1775 34.089 24.3494 32.8473 24.3494 31.5508C24.3494 30.165 25.0697 28.8323 26.5102 28.8323C28.0038 28.8323 28.5988 30.165 28.5988 31.5508C28.5986 32.865 27.9681 34.089 26.5102 34.089Z" fill="#652C8F"/>
</g>
</svg>
