<svg width="79" height="56" viewBox="0 0 79 56" fill="none" xmlns="http://www.w3.org/2000/svg">
<g clip-path="url(#clip0_6_260)">
<path fill-rule="evenodd" clip-rule="evenodd" d="M79 34.9067V26.1698H0V34.9067H79ZM79 25.7003V17H0V25.7003H79Z" fill="#004890"/>
<path fill-rule="evenodd" clip-rule="evenodd" d="M39.4992 18.5073C35.3546 18.5073 32.0032 21.8445 32.0032 25.971C32.0032 30.0982 35.3546 33.4352 39.4992 33.4352C43.6441 33.4352 47.0316 30.0982 47.0316 25.971C47.0316 21.8443 43.6441 18.5073 39.4992 18.5073Z" fill="#D11C00"/>
<path fill-rule="evenodd" clip-rule="evenodd" d="M37.2288 26.9756L37.7696 26.4379L43.9322 26.1503L44.1842 25.8986H38.1662L34.8506 22.0594L45.8426 25.7195L42.2023 29.3809H34.8506L35.5713 28.6265L41.7336 28.3392L41.9859 28.0885H36.1478L36.6881 27.5494L42.8148 27.2629L43.1029 26.9756H37.2288Z" fill="white"/>
<path fill-rule="evenodd" clip-rule="evenodd" d="M57.0497 21.5923C57.0497 20.5887 56.4741 19.9059 55.4295 19.9059C54.3838 19.9059 53.8434 20.5887 53.8434 21.5923C53.8434 22.5979 54.3838 23.2797 55.4295 23.2797C56.4738 23.2797 57.0497 22.5979 57.0497 21.5923ZM56.3656 21.5923C56.3656 22.1671 56.1141 22.7775 55.4295 22.7775C54.7803 22.7775 54.5278 22.1671 54.5278 21.5923C54.5278 21.0185 54.7803 20.4083 55.4295 20.4083C56.0775 20.4083 56.3656 21.0185 56.3656 21.5923ZM50.9602 19.943H50.1315H50.1312V23.2436H50.7798V21.9881H51.0682C51.7889 21.9881 52.329 21.7005 52.329 20.9468C52.329 20.1579 51.6804 19.943 50.9602 19.943ZM51.0321 21.4854H50.7801V20.481H51.0321C51.3568 20.481 51.6451 20.6248 51.6451 20.9832C51.6451 21.3777 51.3568 21.4854 51.0321 21.4854ZM60.618 20.5521C60.4021 20.4807 60.149 20.4083 59.9331 20.4083C59.7172 20.4083 59.4291 20.5163 59.4291 20.875C59.4291 21.1153 59.6813 21.2112 59.9747 21.3227C60.383 21.4779 60.8711 21.6634 60.8711 22.3109C60.8711 23.0285 60.2949 23.2797 59.609 23.2797C59.2713 23.2797 59.1245 23.2475 58.839 23.1848L58.7805 23.172L58.8529 22.5616C59.0689 22.7051 59.3217 22.7775 59.5747 22.7775C59.8257 22.7775 60.1862 22.634 60.1862 22.3465C60.1862 22.0845 59.9203 21.9813 59.6169 21.8636C59.2138 21.7073 58.7444 21.5252 58.7444 20.9105C58.7444 20.1579 59.2856 19.9059 59.8607 19.9059C60.1488 19.9059 60.4379 19.943 60.6549 20.0141L60.618 20.5521ZM62.3125 20.481H63.2503V23.2434H63.8989V20.481H64.8358V19.943H62.3125V20.481ZM66.4575 19.943H68.403V20.481H67.1066V21.2705H68.2955V21.8085H67.1066V22.7051H68.403V23.2434H66.4575V19.943ZM71.3582 20.4083C71.5742 20.4083 71.827 20.4807 72.0081 20.5521L72.08 20.0141C71.8275 19.943 71.5744 19.9059 71.2858 19.9059C70.7107 19.9059 70.1335 20.1579 70.1335 20.9105C70.1335 21.5252 70.6026 21.7073 71.0055 21.8636C71.3087 21.9813 71.5744 22.0845 71.5744 22.3465C71.5744 22.634 71.2508 22.7775 70.9996 22.7775C70.7455 22.7775 70.4937 22.7051 70.242 22.5616L70.2048 23.172C70.2246 23.1763 70.2437 23.1805 70.2622 23.1846C70.5485 23.2474 70.6957 23.2797 71.0338 23.2797C71.7195 23.2797 72.2599 23.0285 72.2599 22.3109C72.2599 21.6634 71.7717 21.4779 71.3635 21.3227C71.07 21.2112 70.8179 21.1153 70.8179 20.875C70.8179 20.5163 71.1067 20.4083 71.3582 20.4083Z" fill="white"/>
<path fill-rule="evenodd" clip-rule="evenodd" d="M51.9338 32.2865C52.1858 32.2865 52.4378 32.251 52.654 32.2152V31.6403C52.4744 31.7117 52.1858 31.7841 51.9338 31.7841C51.213 31.7841 50.8164 31.2819 50.8164 30.5999C50.8164 29.9539 51.2128 29.4159 51.8974 29.4159C52.1497 29.4159 52.3659 29.4515 52.6182 29.5955L52.654 29.056C52.4378 28.9491 52.1497 28.9127 51.9338 28.9127C50.8164 28.9127 50.0957 29.5231 50.0957 30.6713C50.0957 31.7844 50.8523 32.2865 51.9338 32.2865ZM56.0057 28.9493H55.2858L53.987 32.251H54.672L54.9603 31.4971H56.2941L56.5819 32.251H57.3029L56.0057 28.9493ZM55.1407 30.9949L55.6447 29.6314L56.1142 30.9949H55.1407ZM58.8887 28.9493H59.7174L60.9437 31.4257H60.9793V28.9493H61.5926V32.251H60.7984L59.5378 29.8107V32.251H58.8887V28.9493ZM65.1958 28.9493H64.4395L63.1773 32.251H63.8623L64.1509 31.4971H65.4841L65.7728 32.251H66.493L65.1958 28.9493ZM64.3307 30.9949L64.7992 29.6314L65.3043 30.9949H64.3307ZM68.0782 28.9493H68.9801C70.0251 28.9493 70.8896 29.3082 70.8896 30.6004C70.8896 31.891 70.0251 32.2513 68.9801 32.2513H68.0782V28.9493ZM68.7639 31.712H69.1244C69.6645 31.712 70.2049 31.3175 70.2049 30.6002C70.2049 29.8828 69.6645 29.487 69.1244 29.487H68.7639V31.712ZM74.3861 28.9493H73.6293L72.3313 32.251H73.0163L73.3043 31.4971H74.6381L74.927 32.251H75.6838L74.3861 28.9493ZM73.5208 30.9949L73.9893 29.6314L74.4583 30.9949H73.5208Z" fill="white"/>
<path fill-rule="evenodd" clip-rule="evenodd" d="M6.08832 23.2076L6.09065 23.2073L6.05457 22.6338C5.91079 22.7049 5.5861 22.7773 5.33383 22.7773C4.64916 22.7773 4.21677 22.2748 4.21677 21.592C4.21677 20.9463 4.6489 20.4081 5.33383 20.4081C5.55029 20.4081 5.80256 20.4442 6.05457 20.5885L6.09065 20.0494C5.8389 19.9428 5.55029 19.9056 5.33383 19.9056C4.21677 19.9056 3.5321 20.5163 3.5321 21.6647C3.5321 22.7776 4.28892 23.2797 5.33383 23.2797C5.58532 23.2797 5.83734 23.2436 6.08832 23.2076ZM9.44207 19.943H8.68578L7.42441 23.2434H8.10908L8.39716 22.4903H9.73042L10.0196 23.2434H10.7392L9.44207 19.943ZM9.04549 20.6248H9.08236L9.55056 21.9881H8.57781L9.04549 20.6248ZM12.3256 19.943H13.1182L14.3801 22.4176V19.943H15.0282V23.2434H14.1995L12.9381 20.8036V23.2434H12.3256V19.943ZM18.6327 19.943H17.8761L16.5782 23.2434H17.2628L17.5512 22.4903H18.885L19.1733 23.2434H19.9299L18.6327 19.943ZM17.7671 21.9881L18.2361 20.6248L18.7051 21.9881H17.7671ZM21.5154 19.943H22.4165C23.4264 19.943 24.327 20.3004 24.327 21.5926C24.327 22.8847 23.4264 23.2437 22.4165 23.2437H21.5154V19.943ZM22.1645 22.7051H22.5611C23.1017 22.7051 23.6423 22.3112 23.6423 21.5923C23.6423 20.875 23.1014 20.4808 22.5611 20.4808H22.1645V22.7051ZM27.7864 19.943H27.0657L25.7685 23.2434H26.4534L26.7415 22.4903H28.075L28.3634 23.2434H29.0841L27.7864 19.943ZM27.3898 20.6248H27.4262L27.8944 21.9881H26.9211L27.3898 20.6248Z" fill="white"/>
<path fill-rule="evenodd" clip-rule="evenodd" d="M14.1276 29.5587C13.9114 29.4873 13.6949 29.4162 13.4429 29.4162C13.227 29.4162 12.9379 29.5231 12.9379 29.8828C12.9379 30.1227 13.1899 30.2183 13.4832 30.3296C13.8916 30.4845 14.3801 30.6699 14.3801 31.3172C14.3801 32.0359 13.8034 32.2865 13.1549 32.2865C12.7941 32.2865 12.6137 32.2507 12.2895 32.1783L12.3617 31.5692C12.5779 31.7117 12.8304 31.7841 13.0824 31.7841C13.3344 31.7841 13.6949 31.6403 13.6949 31.3538C13.6949 31.0917 13.429 30.9885 13.1255 30.8707C12.7224 30.7142 12.2532 30.5321 12.2532 29.9181C12.2532 29.1642 12.8302 28.9127 13.4066 28.9127C13.6586 28.9127 13.947 28.9491 14.1637 29.0207L14.1276 29.5587ZM10.5596 30.6002C10.5596 29.5958 9.9832 28.913 8.93803 28.913C7.89286 28.913 7.35224 29.5958 7.35224 30.6002C7.35224 31.6048 7.8926 32.2865 8.93803 32.2865C9.9832 32.2865 10.5596 31.6048 10.5596 30.6002ZM9.87497 30.6004C9.87497 31.174 9.62296 31.7846 8.93803 31.7846C8.28944 31.7846 8.0369 31.1737 8.03664 30.6004C8.03664 30.0256 8.28918 29.4165 8.93803 29.4165C9.62296 29.4165 9.87497 30.0256 9.87497 30.6004ZM4.46874 28.9493H3.64003H3.63977V32.251H4.28862V30.9946H4.57697C5.29745 30.9946 5.8386 30.7084 5.8386 29.9542C5.8386 29.1645 5.18975 28.9493 4.46874 28.9493ZM4.54116 30.4925H4.28889V29.4873H4.54116C4.86532 29.4873 5.15367 29.6314 5.15367 29.9903C5.15367 30.384 4.86532 30.4925 4.54116 30.4925ZM15.8213 29.4873H16.7583V32.251H17.4074V29.4873H18.3443V28.9493H15.8213V29.4873Z" fill="white"/>
</g>
<defs>
<clipPath id="clip0_6_260">
<rect width="79" height="17.9067" fill="white" transform="translate(0 17)"/>
</clipPath>
</defs>
</svg>
