<svg width="56" height="56" viewBox="0 0 56 56" fill="none" xmlns="http://www.w3.org/2000/svg">
<g clip-path="url(#clip0_6_334)">
<path fill-rule="evenodd" clip-rule="evenodd" d="M14.032 38.6424L13.0765 43.1748H14.1258L15.0808 38.6424H14.032ZM15.5267 38.6424L15.3582 39.4117H16.7615L15.9672 43.1748H17.0163L17.8105 39.4117H19.1873L19.3933 38.6424H15.5267ZM23.2953 44.3944L22.3595 48.9214H25.4388L25.587 48.1727H23.5771L24.374 44.3944H23.2953ZM19.798 38.6424L18.8428 43.1748H22.1739L22.3424 42.3788H20.0624L20.307 41.2202H22.3058L22.4621 40.5171H20.4549L20.6896 39.3986H22.9746L23.1617 38.6424H19.798ZM8.41213 43.1748H9.38596L10.0231 39.991L11.1695 43.1748H12.4304L13.3856 38.6424H12.4434L11.7427 41.8823L10.7012 38.6424H9.36737L8.41213 43.1748ZM34.836 43.1748H35.8665L37.8435 39.7098L38.2453 42.3913H36.8662L36.3869 43.1748H39.3926L38.6831 38.6424H37.4656L34.836 43.1748ZM5.71434 38.6424H4.66526L4.0418 41.5958C3.51508 43.8689 7.61087 43.7004 8.01847 41.9389L8.71166 38.6421H7.68147L7.06324 41.5264C6.88863 42.6504 4.7254 43.1164 5.15276 41.339L5.71434 38.6424ZM23.6274 38.6424H25.5007C26.3333 38.6424 26.9518 38.7966 27.2764 39.2406C27.9065 40.1025 27.3661 41.8373 26.5762 42.4994C25.9867 42.9941 25.2102 43.1751 24.5263 43.1751H22.6907L23.6274 38.6424Z" fill="#304C9C"/>
<path fill-rule="evenodd" clip-rule="evenodd" d="M24.5196 39.4117L23.8793 42.3954H24.6099C24.9923 42.3954 25.4812 42.2711 25.8682 41.9155C26.4129 41.4143 26.632 40.473 26.4408 39.9527C26.2752 39.5015 25.8266 39.412 25.4751 39.412L24.5196 39.4117Z" fill="white"/>
<path fill-rule="evenodd" clip-rule="evenodd" d="M5.54257 44.3905H3.40723L2.47058 48.9238H3.50077L4.29971 45.1322C4.29971 45.1322 5.04955 45.0584 5.41358 45.2246C5.63263 45.3245 5.72647 45.7562 5.5019 46.0616C5.15414 46.5342 4.95194 46.5241 4.14574 46.4735L4.20181 47.0932C4.20181 47.0932 4.41621 47.2016 4.63614 47.2027C7.00942 47.2196 7.29791 44.3905 5.54257 44.3905ZM38.8153 44.3899L39.5201 48.9226H40.6935L43.2925 44.3899H42.2466L40.3516 47.8654L39.8306 44.3899H38.8153Z" fill="#304C9C"/>
<path fill-rule="evenodd" clip-rule="evenodd" d="M34.3735 48.9214H35.4034L36.2125 45.1481H37.0007C38.0585 45.1481 37.6543 46.4494 36.3964 46.4494H36.1529L36.9208 48.9217H38.0863L37.3946 46.9709C39.0372 46.6254 39.3033 44.389 37.356 44.389H35.3098L34.3735 48.9214ZM3.55249 43.6374L3.51501 43.932H52.5399L52.5823 43.6374H3.55249ZM43.8678 38.6425L42.9122 43.1749H46.2436L46.4116 42.3789H44.1315L44.3767 41.2203H46.3753L46.5313 40.5172H44.5243L44.7591 39.3987H47.0437L47.2308 38.6425H43.8678ZM39.6064 38.6425L39.4379 39.4118H40.8411L40.0468 43.1749H41.0959L41.8902 39.4118H43.2675L43.4729 38.6425H39.6064ZM32.7497 38.6425L32.5809 39.4118H33.9839L33.1899 43.1749H34.2387L35.033 39.4118H36.41L36.616 38.6425H32.7497ZM9.62471 44.3088C10.9475 44.3088 11.8972 45.2423 11.4082 47.0508C10.9849 48.6158 9.41669 49.0528 8.6134 49.0362C7.72091 49.0176 6.06755 48.3628 6.71919 46.3573C7.33423 44.466 8.89114 44.3088 9.62471 44.3088Z" fill="#304C9C"/>
<path fill-rule="evenodd" clip-rule="evenodd" d="M9.58555 45.0816C8.90543 45.0299 8.18813 45.2798 7.76107 46.432C7.36886 47.4904 7.8735 48.2079 8.61375 48.2507C9.0719 48.2774 10.0359 48.1339 10.3967 46.8445C10.7572 45.5549 10.0765 45.1191 9.58555 45.0816Z" fill="white"/>
<path fill-rule="evenodd" clip-rule="evenodd" d="M30.7239 45.1673L30.8924 44.3887H29.5435C27.6417 44.3887 27.1813 45.5679 28.0435 46.4302L29.1923 47.4226C29.4334 47.6876 29.219 48.1661 28.816 48.1422H27.138L26.9695 48.9214H28.7571C30.5984 48.9214 30.6626 47.5074 30.1036 46.9735L28.8881 45.8119C28.6905 45.6542 28.8184 45.1673 29.2472 45.1673H30.7239ZM14.9482 45.1673L15.1167 44.3887H13.7681C11.8664 44.3887 11.4059 45.5679 12.2682 46.4302L13.4166 47.4226C13.658 47.6876 13.4436 48.1661 13.0407 48.1422H11.3626L11.1938 48.9214H12.9811C14.8224 48.9214 14.8869 47.5074 14.3277 46.9735L13.1121 45.8119C12.9149 45.6542 13.043 45.1673 13.4715 45.1673H14.9482ZM32.2355 39.4265L32.404 38.6474H31.0551C29.153 38.6474 28.6929 39.8266 29.5554 40.6889L30.7033 41.6813C30.945 41.9468 30.7306 42.4247 30.3276 42.4009H28.6499L28.4814 43.1801H30.2687C32.11 43.1801 32.1742 41.7661 31.6152 41.2321L30.3997 40.0712C30.2021 39.9129 30.3305 39.4265 30.7588 39.4265H32.2355ZM50.3621 39.4265L50.5306 38.6474H49.1817C47.2802 38.6474 46.8194 39.8266 47.682 40.6889L48.8304 41.6813C49.0716 41.9468 48.8572 42.4247 48.4542 42.4009H46.7764L46.6079 43.1801H48.3952C50.2366 43.1801 50.3014 41.7661 49.7418 41.2321L48.5263 40.0712C48.3287 39.9129 48.4571 39.4265 48.8853 39.4265H50.3621ZM15.4447 44.3893L15.2762 45.1586H16.6795L15.8852 48.922H16.9342L17.7282 45.1586H19.1053L19.3116 44.3893H15.4447ZM17.5371 48.9202H18.5673L20.544 45.4555L20.9464 48.1364H19.5675L19.0876 48.9202H22.0933L21.3842 44.3875H20.1663L17.5371 48.9202ZM31.5199 44.3887L30.565 48.9214H33.8958L34.0643 48.1251H31.7843L32.0289 46.9665H34.0274L34.184 46.2634H32.1765L32.4118 45.1446H34.6965L34.8836 44.3887H31.5199ZM49.0466 44.3887L48.0911 48.9214H51.4225L51.591 48.1251H49.3104L49.5556 46.9665H51.5541L51.7101 46.2634H49.7032L49.9382 45.1446H52.2226L52.4097 44.3887H49.0466ZM52.0149 48.1774L51.9957 48.2666H52.2476L52.1084 48.922H52.2089L52.3487 48.2666H52.6006L52.6191 48.1774H52.0149ZM53.2734 48.922H53.371L53.5294 48.1774H53.3864L53.0389 48.8096L52.9602 48.1774H52.8161L52.6578 48.922H52.7554L52.887 48.2898L52.9649 48.922H53.0639L53.4102 48.2898V48.2904L53.2734 48.922ZM48.5594 44.466C46.9781 44.0052 44.9624 44.4462 44.4372 46.599C44.2829 47.2323 44.2753 48.9778 46.5132 49.015C46.7979 49.015 47.415 49.0327 47.6855 48.8982L47.904 48.0856C47.6062 48.2213 47.1544 48.2512 46.7436 48.2512C46.2346 48.2512 45.8601 48.0644 45.6495 47.7643C45.4383 47.4636 45.2773 46.5874 46.0699 45.6031C46.499 45.0702 47.3462 44.9375 48.4356 45.2292L48.5594 44.466ZM43.5432 44.3887L42.5877 48.9214H43.6368L44.5917 44.3887H43.5432ZM34.0228 13.523C30.721 13.093 12.8884 13.2478 10.2676 13.2731L5.53674 35.225C12.7792 31.5804 19.2262 28.4346 26.3983 25.0126C35.5167 20.6623 41.7896 19.5472 43.0909 19.4839C43.9665 19.4415 43.47 19.06 43.054 18.9682C37.9608 17.8451 25.6078 23.5727 25.6078 23.5727L22.9088 15.384L40.4951 15.4006C39.5247 13.9637 37.5887 13.9875 34.0228 13.523Z" fill="#304C9C"/>
<path fill-rule="evenodd" clip-rule="evenodd" d="M12.9437 6.96411C20.9854 8.72902 29.0268 10.4956 37.0678 12.2638C40.9344 13.1162 41.4285 14.441 41.4285 14.441C41.4285 14.441 45.6597 13.9297 46.436 15.4023C47.4313 17.289 44.8863 20.8738 44.8863 20.8738L8.30981 35.2247H46.2936L52.5227 6.96411H12.9437Z" fill="#304C9C"/>
<path fill-rule="evenodd" clip-rule="evenodd" d="M40.6534 15.4282C40.6534 15.4282 40.4718 16.4465 36.7127 16.7617C36.3682 16.7905 36.286 17.0107 36.7406 17.0252C37.1944 17.0397 43.4776 16.8233 44.1774 16.8918C44.8776 16.9604 44.784 17.3831 44.6943 17.7925C44.6036 18.2015 44.133 19.4278 44.0121 19.7157C43.8919 20.0039 44.1217 19.9972 44.3067 19.8093C44.4912 19.621 45.6202 17.3532 45.6527 16.8169C45.685 16.2806 45.4932 15.7237 44.6205 15.5313C43.7475 15.3381 40.6534 15.4282 40.6534 15.4282Z" fill="#304C9C"/>
</g>
<defs>
<clipPath id="clip0_6_334">
<rect width="56" height="56" fill="white"/>
</clipPath>
</defs>
</svg>
