<svg width="56" height="56" viewBox="0 0 56 56" fill="none" xmlns="http://www.w3.org/2000/svg">
<path d="M27.9983 47.1129C28.3307 46.9466 36.9724 43.2076 39.7141 40.964C42.5395 38.6374 44.0351 35.3141 44.0351 31.3255V12.63L43.7859 12.5468C36.8892 8.80776 28.3307 9.05704 27.9152 9.05704C27.5829 9.05704 19.0245 8.80776 12.128 12.5468L11.9618 12.63V31.4087C11.9618 35.3971 13.4575 38.7206 16.2825 41.0471C19.0245 43.2905 27.666 47.0297 27.9983 47.1129Z" fill="#331A13"/>
<path d="M28 47.5299C28 47.5299 18.8599 43.5413 16.0347 41.2983C13.0435 38.8051 11.631 35.3984 11.631 31.4934V12.0501C18.8599 8.14483 28 8.47725 28 8.47725C28 8.47725 37.14 8.14483 44.369 12.0501V31.4105C44.369 35.3157 42.9564 38.7226 39.9654 41.215C37.14 43.5417 28 47.5299 28 47.5299ZM12.9605 31.4934C12.9605 35.1492 14.29 38.1409 16.8657 40.2182C19.1922 42.129 26.0889 45.2034 28 46.0345C29.911 45.2036 36.8908 42.0461 39.1342 40.2182C41.71 38.1409 43.0395 35.0663 43.0395 31.4934V12.3826C33.401 11.4686 21.9342 11.967 12.9604 20.2762L12.9605 31.4934Z" fill="#FEB305"/>
<path d="M37.2205 28.7484C38.4667 29.4962 38.9655 29.9948 39.0484 30.9087C39.0484 31.9059 38.3835 32.4874 37.3032 32.4874C36.3896 32.4874 35.3088 31.9886 34.5612 31.3239V33.9832C35.475 34.4816 36.5554 34.8969 37.7189 34.8969C40.5438 34.8969 41.8733 32.9024 41.8733 31.0743C41.9565 29.4129 41.4574 28.0833 39.0484 26.6706C37.9678 26.006 37.1371 25.5905 37.1371 24.5933C37.1371 23.5963 38.051 23.1806 38.7986 23.1806C39.7958 23.1806 40.7928 23.7624 41.3745 24.3441V21.8517C40.8759 21.4363 39.7962 20.8547 38.2173 20.9377C36.306 21.0208 34.3118 22.3501 34.3118 24.6769C34.3951 26.2556 34.894 27.4189 37.2205 28.7484Z" fill="#FEB305"/>
<path d="M28.4963 21.025C26.9174 21.025 25.6709 21.3574 24.5908 22.0222V40.801H27.416V34.735C27.6654 34.8182 28.0808 34.9011 28.7455 34.9011C31.9861 34.9011 33.814 31.993 33.814 27.8383C33.814 23.601 31.903 21.025 28.4963 21.025ZM28.2467 32.4085C27.831 32.4085 27.4987 32.3256 27.3328 32.2424V23.4349L27.416 23.4347C27.6654 23.3518 28.0808 23.1855 28.4132 23.1855C30.0746 23.1855 30.7393 24.515 30.7393 27.7554C30.7395 30.9129 29.9085 32.4085 28.2467 32.4085Z" fill="#FEB305"/>
<path d="M18.694 34.9004C20.439 34.9004 21.9346 34.485 23.0147 33.7374V21.1907H20.1067V32.0755C19.7744 32.3247 19.3587 32.4079 18.7771 32.4079C17.4478 32.4079 17.2815 31.1612 17.2815 30.4137V21.1907H14.3735V30.2474C14.3734 33.3219 15.8689 34.9004 18.694 34.9004Z" fill="#FEB305"/>
</svg>
